<?xml version="1.0" encoding="UTF-8"?>
<svg width="12px" height="8px" viewBox="0 0 12 8" version="1.1" xmlns="http://www.w3.org/2000/svg" xmlns:xlink="http://www.w3.org/1999/xlink">
    <!-- Generator: Sketch 62 (91390) - https://sketch.com -->
    <title>icon/down-arrow</title>
    <desc>Created with Sketch.</desc>
    <g id="symbols" stroke="none" stroke-width="1" fill="none" fill-rule="evenodd">
        <g id="icon/down-arrow" transform="translate(0.000000, -2.000000)" fill="#000000">
            <g transform="translate(0.000000, 1.000000)" id="Bold">
                <g>
                    <path d="M0.59952,2.6035 L5.87184,8.839 L5.87184,8.839 C5.9683441,8.94385608 6.10175163,9.00314171 6.2412,9.00314171 C6.38064837,9.00314171 6.5140559,8.94385608 6.61056,8.839 L11.88048,2.6035 C11.9656381,2.50355893 12.0082475,2.37191676 11.9985676,2.23866754 C11.9888877,2.10541832 11.9277461,1.98195431 11.82912,1.8965 L10.94112,1.118 C10.7350908,0.937065237 10.4278118,0.961772564 10.25088,1.1735 L6.33168,5.9 C6.30888361,5.92759605 6.27567015,5.94346818 6.24072,5.94346818 C6.20576985,5.94346818 6.17255639,5.92759605 6.14976,5.9 L2.22912,1.173 C2.14401138,1.07170801 2.0239409,1.0095307 1.89504,1 C1.76591779,0.98800846 1.63762923,1.03093001 1.53936,1.119 L0.65088,1.8965 C0.551686581,1.98180269 0.490012431,2.10541807 0.48,2.239 C0.470290157,2.37241603 0.513485671,2.50414933 0.59952,2.6035 Z" id="Shape"></path>
                </g>
            </g>
        </g>
    </g>
</svg>