<?xml version="1.0" encoding="UTF-8"?>
<svg width="24px" height="24px" viewBox="0 0 24 24" version="1.1" xmlns="http://www.w3.org/2000/svg" xmlns:xlink="http://www.w3.org/1999/xlink">
    <!-- Generator: Sketch 62 (91390) - https://sketch.com -->
    <title>icon/social/deezer</title>
    <desc>Created with Sketch.</desc>
    <g id="icon/social/deezer" stroke="none" stroke-width="1" fill="none" fill-rule="evenodd">
        <rect id="container" x="0" y="0" width="24" height="24"></rect>
        <path d="M4.37570593,17.0664641 L4.37570593,18.3926482 L-2.39808173e-13,18.3926482 L-2.39808173e-13,17.0664641 L4.37570593,17.0664641 Z M9.28182022,17.0664641 L9.28182022,18.3926482 L4.90611429,18.3926482 L4.90611429,17.0664641 L9.28182022,17.0664641 Z M14.1877714,17.0664641 L14.1877714,18.3926482 L9.81206549,18.3926482 L9.81206549,17.0664641 L14.1877714,17.0664641 Z M19.0937226,17.0664641 L19.0937226,18.3926482 L14.7180167,18.3926482 L14.7180167,17.0664641 L19.0937226,17.0664641 Z M24,17.0664641 L24,18.3926482 L19.624131,18.3926482 L19.624131,17.0664641 L24,17.0664641 Z M4.37570593,15.3428001 L4.37570593,16.6691472 L-2.39808173e-13,16.6691472 L-2.39808173e-13,15.3428001 L4.37570593,15.3428001 Z M9.28182022,15.3429632 L9.28182022,16.6691472 L4.90611429,16.6691472 L4.90611429,15.3429632 L9.28182022,15.3429632 Z M14.1877714,15.3429632 L14.1877714,16.6691472 L9.81206549,16.6691472 L9.81206549,15.3429632 L14.1877714,15.3429632 Z M19.0938857,15.3429632 L19.0938857,16.6691472 L14.7181798,16.6691472 L14.7181798,15.3429632 L19.0938857,15.3429632 Z M24,15.3428001 L24,16.6691472 L19.624131,16.6691472 L19.624131,15.3428001 L24,15.3428001 Z M4.37570593,13.6194622 L4.37570593,14.9454831 L-2.39808173e-13,14.9454831 L-2.39808173e-13,13.6194622 L4.37570593,13.6194622 Z M9.28182022,13.6194622 L9.28182022,14.9454831 L4.90611429,14.9454831 L4.90611429,13.6194622 L9.28182022,13.6194622 Z M14.1877714,13.6194622 L14.1877714,14.9454831 L9.81206549,14.9454831 L9.81206549,13.6194622 L14.1877714,13.6194622 Z M19.0938857,13.6194622 L19.0938857,14.9454831 L14.7181798,14.9454831 L14.7181798,13.6194622 L19.0938857,13.6194622 Z M24,13.6189729 L24,14.9451569 L19.624131,14.9451569 L19.624131,13.6189729 L24,13.6189729 Z M4.37570593,11.8959612 L4.37570593,13.2216559 L-2.39808173e-13,13.2216559 L-2.39808173e-13,11.8959612 L4.37570593,11.8959612 Z M14.1877714,11.8959612 L14.1877714,13.2216559 L9.81206549,13.2216559 L9.81206549,11.8959612 L14.1877714,11.8959612 Z M19.0938857,11.8959612 L19.0938857,13.2216559 L14.7181798,13.2216559 L14.7181798,11.8959612 L19.0938857,11.8959612 Z M24,11.8954719 L24,13.2216559 L19.624131,13.2216559 L19.624131,11.8954719 L24,11.8954719 Z M4.37570593,10.1719709 L4.37570593,11.4976656 L-2.39808173e-13,11.4976656 L-2.39808173e-13,10.1719709 L4.37570593,10.1719709 Z M14.1877714,10.172134 L14.1877714,11.4976656 L9.81206549,11.4976656 L9.81206549,10.172134 L14.1877714,10.172134 Z M19.0938857,10.172134 L19.0938857,11.4976656 L14.7181798,11.4976656 L14.7181798,10.172134 L19.0938857,10.172134 Z M24,10.1714816 L24,11.4976656 L19.624131,11.4976656 L19.624131,10.1714816 L24,10.1714816 Z M14.1877714,8.44814369 L14.1877714,9.77416461 L9.81206549,9.77416461 L9.81206549,8.44814369 L14.1877714,8.44814369 Z M24,8.44798059 L24,9.7736753 L19.624131,9.7736753 L19.624131,8.44798059 L24,8.44798059 Z M14.1877714,6.7244796 L14.1877714,8.05066362 L9.81206549,8.05066362 L9.81206549,6.7244796 L14.1877714,6.7244796 Z M24,6.7241534 L24,8.04968501 L19.624131,8.04968501 L19.624131,6.7241534 L24,6.7241534 Z M24,5 L24,6.32618402 L19.624131,6.32618402 L19.624131,5 L24,5 Z" fill="#000000"></path>
    </g>
</svg>