<?xml version="1.0" encoding="UTF-8"?>
<svg width="24px" height="24px" viewBox="0 0 24 24" version="1.1" xmlns="http://www.w3.org/2000/svg" xmlns:xlink="http://www.w3.org/1999/xlink">
    <!-- Generator: Sketch 62 (91390) - https://sketch.com -->
    <title>icon/social/instagram</title>
    <desc>Created with Sketch.</desc>
    <g id="icon/social/instagram" stroke="none" stroke-width="1" fill="none" fill-rule="evenodd">
        <rect id="container" x="0" y="0" width="24" height="24"></rect>
        <path d="M16,11.9999762 C16,14.2091017 14.2091017,16 11.9999762,16 C9.79085069,16 8,14.2091017 8,11.9999762 C8,9.79085069 9.79085069,7.99995237 11.9999762,7.99995237 C14.2091017,7.99995237 16,9.79085069 16,11.9999762 M18.4056161,7.03436203 C17.6103652,7.03436203 16.9655903,6.38963483 16.9655903,5.59433631 C16.9655903,4.79903779 17.6103652,4.15435822 18.4056161,4.15435822 C19.2009146,4.15435822 19.8455941,4.79903779 19.8455941,5.59433631 C19.8455941,6.38963483 19.2009146,7.03436203 18.4056161,7.03436203 M11.9999762,18.1621107 C8.59671206,18.1621107 5.8378417,15.4032403 5.8378417,11.9999762 C5.8378417,8.59671206 8.59671206,5.83779407 11.9999762,5.83779407 C15.4032879,5.83779407 18.1621583,8.59671206 18.1621583,11.9999762 C18.1621583,15.4032403 15.4032879,18.1621107 11.9999762,18.1621107 M23.9277867,7.05241535 C23.8695303,5.77510762 23.6666567,4.90283244 23.3700394,4.13949639 C23.0633235,3.35043794 22.6530513,2.68117918 21.985936,2.01406396 C21.3187732,1.34690111 20.6495621,0.936628817 19.860456,0.629960642 C19.0971676,0.333295623 18.2248447,0.130469732 16.9475847,0.0721656237 C15.6676094,0.0137662477 15.2590043,0 11.9999762,0 C8.74099567,0 8.33234294,0.0137662477 7.05241535,0.0721656237 C5.77510762,0.130469732 4.90283244,0.333295623 4.13954402,0.629960642 C3.35043794,0.936628817 2.68122682,1.34690111 2.01406396,2.01406396 C1.34694874,2.68117918 0.936676451,3.35043794 0.630008276,4.13949639 C0.333343257,4.90283244 0.130469732,5.77510762 0.0722132578,7.05241535 C0.0138138818,8.33229531 0,8.74094804 0,11.9999762 C0,15.2590043 0.0138138818,15.6676094 0.0722132578,16.947537 C0.130469732,18.2248447 0.333343257,19.0971199 0.630008276,19.860456 C0.936676451,20.6495144 1.34694874,21.3187732 2.01406396,21.9858884 C2.68122682,22.6530513 3.35043794,23.0633235 4.13954402,23.3699917 C4.90283244,23.6666567 5.77510762,23.8695303 7.05241535,23.9277391 C8.33234294,23.9861861 8.74099567,24 11.9999762,24 C15.2590043,24 15.6676094,23.9861861 16.9475847,23.9277391 C18.2248447,23.8695303 19.0971676,23.6666567 19.860456,23.3699917 C20.6495621,23.0633235 21.3187732,22.6530513 21.985936,21.9858884 C22.6530513,21.3187732 23.0633235,20.6495621 23.3700394,19.860456 C23.6666567,19.0971199 23.8695303,18.2248447 23.9277867,16.947537 C23.9861861,15.6676094 24,15.2590043 24,11.9999762 C24,8.74099567 23.9861861,8.33229531 23.9277867,7.05241535" id="instagram" fill="#000000"></path>
    </g>
</svg>